<svg xmlns="http://www.w3.org/2000/svg" viewBox="-1 -3 26 44">
  <rect x="-1" y="-3" width="26" height="44" fill="#2b2b2b" />
  <path d="M 0.0 0.0 L 24.0 0.0 L 24.0 40.0 L 0.0 40.0 z" fill="none" stroke="rgb(119,119,119)" stroke-width="0.1" />
  <path d="M 0.0 -2.0 L 24.0 -2.0 L 24.0 0.0 L 0.0 0.0 z" fill="none" stroke="rgb(119,119,119)" stroke-width="0.1" />
  <path d="M 11.6 36.9 l 1.2 -0.90000004 -1.2 -0.90000004 v 1.8000001 z M 12.0 34.0 C 10.896 34.0 10.0 34.896 10.0 36.0 s 0.896 2.0 2.0 2.0 2.0 -0.896 2.0 -2.0 S 13.104 34.0 12.0 34.0 z m 0.0 3.6000001 c -0.88199997 0.0 -1.6 -0.718 -1.6 -1.6 s 0.718 -1.6 1.6 -1.6 1.6 0.718 1.6 1.6 -0.718 1.6 -1.6 1.6 z" stroke="none" fill="rgb(255,255,255)" />
  <text x="14.0" y="-0.7578223" font-size="0.7265332" font-family="'Open Sans', sans-serif" fill="rgb(255,255,255)">06: So., 27. September</text>
</svg>